    <svg xmlns="http://www.w3.org/2000/svg" viewBox="0 0 139.66 60.01">
      <defs>
        <style>
          .cls-1 {
            fill: currentColor;
          }
        </style>
      </defs>
      <g id="图层_2" data-name="图层 2">
        <g id="图层_1-2" data-name="图层 1">
          <path
            class="cls-1"
            d="M14.67,5.6A139.34,139.34,0,0,1,34.84,7.8c2.94.52,5.86,1.1,8.79,1.63A6.12,6.12,0,0,0,49,7.81,30.1,30.1,0,0,1,65.49.28c12.47-1.48,22.46,3,30,13a28.37,28.37,0,0,1,4.37,8.66A6,6,0,0,0,103.81,26c6.16,2.2,12.29,4.49,18.23,7.24a68.93,68.93,0,0,1,12.08,6.65,15.26,15.26,0,0,1,4.43,4.69,7.85,7.85,0,0,1-3.13,11,16.89,16.89,0,0,1-6.89,1.79,67.3,67.3,0,0,1-12-.47,223.18,223.18,0,0,1-24.64-4.06,4.84,4.84,0,0,0-4.25,1,27.07,27.07,0,0,1-14,6c-10.49,1.22-19.17-2.26-26-10.3a25.73,25.73,0,0,1-4.44-7.63,5.58,5.58,0,0,0-3.68-3.49C32.93,36.14,26.39,33.73,20,30.92A86,86,0,0,1,7.53,24.58a21.49,21.49,0,0,1-5.61-4.84,8.18,8.18,0,0,1-.66-9.6A8.69,8.69,0,0,1,6.11,6.65,25.66,25.66,0,0,1,14.67,5.6Zm-.1,1.89c-1.19,0-2.39-.07-3.58,0a14,14,0,0,0-6.1,1.64,6.09,6.09,0,0,0-2.35,8.38A12.28,12.28,0,0,0,6,21.31,58.78,58.78,0,0,0,17.3,27.75,217.87,217.87,0,0,0,41.13,37a5.16,5.16,0,0,1,3.46,3.35A26.4,26.4,0,0,0,57.17,55.09,26.75,26.75,0,0,0,87,52a4.8,4.8,0,0,1,4.35-1.11c7.22,1.54,14.46,2.94,21.8,3.8a83.63,83.63,0,0,0,14.92.86,15.28,15.28,0,0,0,6.34-1.49A6.14,6.14,0,0,0,137,45.43a12.72,12.72,0,0,0-3.37-3.75A53.11,53.11,0,0,0,123.89,36a178.75,178.75,0,0,0-20.39-8.23,7.87,7.87,0,0,1-5.29-5.27A29.87,29.87,0,0,0,66.72,1.89,28.89,28.89,0,0,0,50.09,9.22a7.79,7.79,0,0,1-7,1.91q-5.34-1.07-10.72-2A113.84,113.84,0,0,0,14.57,7.49Z"
          />
          <path
            class="cls-1"
            d="M14.57,7.49A113.84,113.84,0,0,1,32.34,9.17q5.38.88,10.72,2a7.79,7.79,0,0,0,7-1.91,29.71,29.71,0,0,1,40.65,1.13,29,29,0,0,1,7.47,12.17,7.87,7.87,0,0,0,5.29,5.27A178.75,178.75,0,0,1,123.89,36a53.11,53.11,0,0,1,9.76,5.66A12.72,12.72,0,0,1,137,45.43a6.14,6.14,0,0,1-2.57,8.63,15.28,15.28,0,0,1-6.34,1.49,83.63,83.63,0,0,1-14.92-.86c-7.34-.86-14.58-2.26-21.8-3.8A4.8,4.8,0,0,0,87,52a26.75,26.75,0,0,1-29.87,3.09A26.4,26.4,0,0,1,44.59,40.36,5.16,5.16,0,0,0,41.13,37,217.87,217.87,0,0,1,17.3,27.75,58.78,58.78,0,0,1,6,21.31a12.28,12.28,0,0,1-3.42-3.79A6.09,6.09,0,0,1,4.89,9.14,14,14,0,0,1,11,7.5C12.18,7.42,13.38,7.49,14.57,7.49ZM16,9.5c-1,0-2,0-3,0-.81,0-1.62.06-2.43.14A11.22,11.22,0,0,0,6,11a3.92,3.92,0,0,0-1.52,5.59,11.54,11.54,0,0,0,2.43,2.79,41.35,41.35,0,0,0,8.71,5.29A221.57,221.57,0,0,0,42.7,35.35,5.26,5.26,0,0,1,46.35,39a23.93,23.93,0,0,0,5.44,9.34,24.68,24.68,0,0,0,34.55,1.48,4.84,4.84,0,0,1,4.57-1.21l1.19.26c9.66,2.11,19.36,4,29.26,4.58a33.26,33.26,0,0,0,9.9-.63,10.36,10.36,0,0,0,2.39-.92,3.59,3.59,0,0,0,1.43-5.4,13,13,0,0,0-3.55-3.68,55.51,55.51,0,0,0-12.32-6.75c-5.51-2.26-11.09-4.34-16.66-6.43a10,10,0,0,1-6.38-6.6A27.6,27.6,0,0,0,70.44,3.85a27.27,27.27,0,0,0-19.06,7,8.94,8.94,0,0,1-5.5,2.5,19.36,19.36,0,0,1-4.35-.4A178.66,178.66,0,0,0,16,9.5Z"
          />
          <path
            class="cls-1"
            d="M16,9.5a178.66,178.66,0,0,1,25.55,3.44,19.36,19.36,0,0,0,4.35.4,8.94,8.94,0,0,0,5.5-2.5,27.27,27.27,0,0,1,19.06-7,27.6,27.6,0,0,1,25.73,19.2,10,10,0,0,0,6.38,6.6c5.57,2.09,11.15,4.17,16.66,6.43a55.51,55.51,0,0,1,12.32,6.75,13,13,0,0,1,3.55,3.68,3.59,3.59,0,0,1-1.43,5.4,10.36,10.36,0,0,1-2.39.92,33.26,33.26,0,0,1-9.9.63c-9.9-.54-19.6-2.47-29.26-4.58l-1.19-.26a4.84,4.84,0,0,0-4.57,1.21,24.68,24.68,0,0,1-34.55-1.48A23.93,23.93,0,0,1,46.35,39a5.26,5.26,0,0,0-3.65-3.66A221.57,221.57,0,0,1,15.6,24.62a41.35,41.35,0,0,1-8.71-5.29,11.54,11.54,0,0,1-2.43-2.79A3.92,3.92,0,0,1,6,11a11.22,11.22,0,0,1,4.59-1.3c.81-.08,1.62-.12,2.43-.14C14,9.49,15,9.5,16,9.5Zm-.47,2.58c-1.17,0-2.35-.05-3.52,0A10.91,10.91,0,0,0,7.45,13a1.52,1.52,0,0,0-.68,2.5,10.61,10.61,0,0,0,2.05,2.13,49.23,49.23,0,0,0,9.61,5.51A235.66,235.66,0,0,0,44.86,33.36a5.09,5.09,0,0,1,3.57,3.79,22.1,22.1,0,0,0,37,10,5.15,5.15,0,0,1,5-1.32,233.32,233.32,0,0,0,28.15,4.76,47,47,0,0,0,10.4.17,12.74,12.74,0,0,0,3.36-.94,1.38,1.38,0,0,0,.62-2.11,6.74,6.74,0,0,0-1.12-1.43,29.84,29.84,0,0,0-7.1-4.66,171.06,171.06,0,0,0-22.48-9.36,13.4,13.4,0,0,1-8.68-8.76C90.16,13.81,83.19,8.06,73,6.6c-7.46-1.07-14.11,1.16-19.82,6.07a12.11,12.11,0,0,1-10.39,3.08c-4-.69-8-1.46-12.07-2.12A112.31,112.31,0,0,0,15.51,12.08Z"
          />
          <path
            class="cls-1"
            d="M15.51,12.08a112.31,112.31,0,0,1,15.21,1.55c4,.66,8,1.43,12.07,2.12a12.11,12.11,0,0,0,10.39-3.08C58.89,7.76,65.54,5.53,73,6.6c10.19,1.46,17.16,7.21,20.6,16.92a13.4,13.4,0,0,0,8.68,8.76,171.06,171.06,0,0,1,22.48,9.36,29.84,29.84,0,0,1,7.1,4.66A6.74,6.74,0,0,1,133,47.73a1.38,1.38,0,0,1-.62,2.11,12.74,12.74,0,0,1-3.36.94,47,47,0,0,1-10.4-.17,233.32,233.32,0,0,1-28.15-4.76,5.15,5.15,0,0,0-5,1.32,22.1,22.1,0,0,1-37-10,5.09,5.09,0,0,0-3.57-3.79A235.66,235.66,0,0,1,18.43,23.15a49.23,49.23,0,0,1-9.61-5.51,10.61,10.61,0,0,1-2.05-2.13A1.52,1.52,0,0,1,7.45,13,10.91,10.91,0,0,1,12,12.1C13.16,12,14.34,12.08,15.51,12.08ZM91.6,30.73h.07c-.12-1.3-.16-2.61-.37-3.9a21,21,0,0,0-40-4.84,1.71,1.71,0,0,0,.12,1.85A6.58,6.58,0,0,0,53,25.42a11.83,11.83,0,0,0,2.94,1.34q14.57,4.05,29.15,8a8.29,8.29,0,0,0,4.08.2,2.68,2.68,0,0,0,2.36-2.75C91.52,31.72,91.56,31.23,91.6,30.73Zm-41.66,3a20.86,20.86,0,0,0,16.62,17,20.48,20.48,0,0,0,19.9-7C74.16,40.92,62,37.68,49.94,33.75Z"
          />
          <path
            class="cls-1"
            d="M91.6,30.73c0,.5-.08,1-.11,1.49A2.68,2.68,0,0,1,89.13,35a8.29,8.29,0,0,1-4.08-.2q-14.58-4-29.15-8A11.83,11.83,0,0,1,53,25.42a6.58,6.58,0,0,1-1.52-1.59A1.71,1.71,0,0,1,51.32,22a21,21,0,0,1,40,4.84c.21,1.29.25,2.6.37,3.9Z"
          />
          <path
            class="cls-1"
            d="M49.94,33.75c12.08,3.93,24.22,7.17,36.52,10a20.48,20.48,0,0,1-19.9,7A20.86,20.86,0,0,1,49.94,33.75Z"
          />
        </g>
      </g>
    </svg>